<svg xmlns="http://www.w3.org/2000/svg" style="display: none;">
  <symbol id="SpringBoot" viewBox="0 0 24 24">
    <path fill="currentColor" d="M20.205 16.392c-2.469 3.289-7.741 2.179-11.122 2.338 0 0-.599.034-1.201.133 0 0 .228-.097.519-.198 2.374-.821 3.496-.986 4.939-1.727 2.71-1.388 5.408-4.413 5.957-7.555-1.032 3.022-4.17 5.623-7.027 6.679-1.955.722-5.492 1.424-5.493 1.424a5.28 5.28 0 0 1-.143-.076c-2.405-1.17-2.475-6.38 1.894-8.059 1.916-.736 3.747-.332 5.818-.825 2.208-.525 4.766-2.18 5.805-4.344 1.165 3.458 2.565 8.866.054 12.21zm.042-13.28a9.212 9.212 0 0 1-1.065 1.89 9.982 9.982 0 0 0-7.167-3.031C6.492 1.971 2 6.463 2 11.985a9.983 9.983 0 0 0 3.205 7.334l.22.194a.856.856 0 1 1 .001.001l.149.132A9.96 9.96 0 0 0 12.015 22c5.278 0 9.613-4.108 9.984-9.292.274-2.539-.476-5.763-1.752-9.596"/>
  </symbol>

  <symbol id="Java" viewBox="0 0 512 512">
    <path fill="currentColor" d="M193.918,208.369c-4.729-10.456-6.849-22.652-3.236-33.731c3.612-11.327,11.703-20.413,19.794-28.878 c22.525-22.531,50.285-39.085,72.316-61.986c12.197-12.573,22.278-27.634,25.762-44.937c2.864-12.695,1.496-25.764-1.117-38.337 c11.7,13.319,15.559,32.363,12.197,49.541c-3.608,19.292-14.316,36.344-26.886,51.031c-10.081,11.827-21.659,22.282-33.731,31.993 c-14.065,11.327-27.88,23.524-36.716,39.457c-7.472,12.943-9.215,28.876-4.11,42.942c8.341,24.146,27.756,42.071,38.338,64.848 c-11.703-10.332-23.152-21.036-33.86-32.361C211.471,236.001,200.889,223.307,193.918,208.369z M257.398,189.448 c-2.115,19.792,8.213,38.462,20.539,53.151c5.972,6.596,11.076,14.687,11.323,23.899c0.251,12.318-6.716,23.774-15.684,31.861 c2.119-0.246,3.612-2.115,5.355-3.11c13.443-8.589,26.385-19.418,32.982-34.227c4.357-10.083,3.362-22.034-2.362-31.371 c-6.724-10.953-15.559-20.662-20.786-32.61c-2.867-6.721-3.862-14.562-1.496-21.657c3.114-9.583,9.834-17.426,16.93-24.272 c19.54-18.544,43.189-31.743,65.844-46.179c-28.629,8.214-56.883,19.542-81.03,37.343 C273.702,153.727,259.515,169.658,257.398,189.448z M393.447,283.052c13.568,0.748,26.882,10.704,29.374,24.397 c2.366,11.825-3.358,23.524-10.705,32.485c-12.075,14.438-28.382,24.771-44.807,33.609c-1.622,0.991-2.99,2.237-4.235,3.608 c21.659-5.478,43.314-13.689,60.867-27.756c9.705-8.091,18.294-18.799,20.163-31.619c1.743-11.076-2.86-22.528-11.077-29.871 c-9.96-9.09-24.021-12.448-37.218-10.704c-7.593,0.995-15.931,2.613-21.158,8.961C380.877,284.921,386.971,282.429,393.447,283.052 z M123.22,318.647c16.303,4.357,33.108,5.603,49.787,6.724c14.936,0.995,29.875,1.246,44.937,1.12 c38.833-0.619,77.916-3.236,116.003-11.699c3.608-0.87,7.593-1.493,10.833-3.733c6.347-4.11,13.313-7.347,20.162-10.583 c-30.995,4.979-62.113,9.215-93.478,11.205c-31.74,1.991-63.731,3.236-95.593,1.121c-9.086-0.87-18.423-1.371-26.886-4.858 c-1.994-0.87-4.733-2.609-3.738-5.227c1.869-3.361,5.603-4.977,8.839-6.72c13.694-6.473,28.629-10.081,43.193-14.313 c-25.021-0.376-49.916,5.971-72.814,15.806c-5.105,2.491-10.83,4.481-14.936,8.714c-1.622,1.739-1.622,4.732,0.247,6.222 C113.511,315.787,118.487,317.28,123.22,318.647z M324.864,352.88c-21.784,3.859-43.694,7.472-65.726,8.589 c-24.147,1.618-48.294,0.247-72.191-2.241c-4.604-0.623-9.211-1.368-13.317-3.483c-2.116-1.246-4.231-3.236-4.106-5.854 c0.247-4.106,3.73-6.967,6.222-9.956c-7.715,2.739-15.434,5.599-21.906,10.708c-2.742,2.116-5.478,5.474-4.733,9.208 c1.125,4.356,5.356,6.97,9.09,8.96c9.208,4.733,19.54,6.846,29.625,8.714c25.511,4.11,51.527,4.235,77.167,2.488 c27.141-2.115,54.148-6.594,80.411-14.313C337.932,362.342,330.836,358.479,324.864,352.88z M188.068,395.951 c-6.97,1.99-14.066,4.357-19.79,8.957c-2.868,2.241-5.105,6.104-3.734,9.713c1.743,4.604,6.1,7.347,10.203,9.705 c10.708,5.854,22.78,8.589,34.604,10.708c26.765,4.229,54.27,3.608,80.908-1.12c15.806-2.989,31.615-7.221,46.301-13.815 c-9.584-3.984-18.917-8.467-27.878-13.693c-15.559,2.738-31.246,5.603-47.178,6.598c-21.032,1.618-42.319-0.125-63.355-2.738 c-4.98-1.121-11.202-1.618-14.563-5.976C181.847,400.677,185.828,398.063,188.068,395.951z M358.345,475.982 c17.424-3.604,34.977-7.719,50.908-15.806c4.976-2.867,11.076-5.979,12.698-11.95c0.87-5.725-5.105-8.714-9.337-11.08 c2.613,2.993,4.356,7.347,1.74,10.83c-4.357,5.853-11.821,8.091-18.42,10.332c-20.66,5.85-42.072,8.216-63.355,10.582 c-56.385,5.102-113.146,6.348-169.528,1.618c-18.92-1.994-38.217-4.109-56.264-10.829c-2.86-1.246-7.217-2.492-7.217-6.352 c1.117-3.354,4.357-5.227,7.217-6.845c12.945-6.595,27.384-10.207,41.822-11.077c-4.228-2.491-9.208-2.738-14.062-2.613 c-12.076,0.373-23.9,3.483-35.349,7.347c-9.834,3.604-19.916,7.59-27.76,14.811c-3.111,2.735-5.971,7.962-2.739,11.699 c4.98,5.353,12.699,6.72,19.54,8.338c38.338,6.599,77.171,10.328,116.011,11.699C255.781,488.184,307.684,485.942,358.345,475.982z M409.378,482.706c-23.402,7.468-47.672,11.574-71.822,14.936c-41.696,5.227-83.769,6.845-125.716,5.603 c-25.515-0.995-51.03-2.738-76.176-6.974c5.85,3.984,13.071,5.227,19.794,7.096c28.257,5.976,57.255,7.096,86.01,7.966 c42.19,0.748,84.387-0.87,125.962-7.468c19.669-3.48,39.459-7.715,57.13-16.927c9.215-4.854,18.552-12.326,20.163-23.152 C435.391,473.741,421.951,478.349,409.378,482.706z"/>
  </symbol>

  <symbol id="Tailwind CSS" viewBox="0 0 32 32">
    <path fill="#44a8b3" d="M9,13.7q1.4-5.6,7-5.6c5.6,0,6.3,4.2,9.1,4.9q2.8.7,4.9-2.1-1.4,5.6-7,5.6c-5.6,0-6.3-4.2-9.1-4.9Q11.1,10.9,9,13.7ZM2,22.1q1.4-5.6,7-5.6c5.6,0,6.3,4.2,9.1,4.9q2.8.7,4.9-2.1-1.4,5.6-7,5.6c-5.6,0-6.3-4.2-9.1-4.9Q4.1,19.3,2,22.1Z"/>
  </symbol>

  <symbol id="Docker" viewBox="0 0 16 16">
    <path fill="#70eef0" d="M12.342 4.536l.15-.227.262.159.116.083c.28.216.869.768.996 1.684.223-.04.448-.06.673-.06.534 0 .893.124 1.097.227l.105.057.068.045.191.156-.066.2a2.044 2.044 0 01-.47.73c-.29.299-.8.652-1.609.698l-.178.005h-.148c-.37.977-.867 2.078-1.702 3.066a7.081 7.081 0 01-1.74 1.488 7.941 7.941 0 01-2.549.968c-.644.125-1.298.187-1.953.185-1.45 0-2.73-.288-3.517-.792-.703-.449-1.243-1.182-1.606-2.177a8.25 8.25 0 01-.461-2.83.516.516 0 01.432-.516l.068-.005h10.54l.092-.007.149-.016c.256-.034.646-.11.92-.27-.328-.543-.421-1.178-.268-1.854a3.3 3.3 0 01.3-.81l.108-.187zM2.89 5.784l.04.007a.127.127 0 01.077.082l.006.04v1.315l-.006.041a.127.127 0 01-.078.082l-.039.006H1.478a.124.124 0 01-.117-.088l-.007-.04V5.912l.007-.04a.127.127 0 01.078-.083l.039-.006H2.89zm1.947 0l.039.007a.127.127 0 01.078.082l.006.04v1.315l-.007.041a.127.127 0 01-.078.082l-.039.006H3.424a.125.125 0 01-.117-.088L3.3 7.23V5.913a.13.13 0 01.085-.123l.039-.007h1.413zm1.976 0l.039.007a.127.127 0 01.077.082l.007.04v1.315l-.007.041a.127.127 0 01-.078.082l-.039.006H5.4a.124.124 0 01-.117-.088l-.006-.04V5.912l.006-.04a.127.127 0 01.078-.083l.039-.006h1.413zm1.952 0l.039.007a.127.127 0 01.078.082l.007.04v1.315a.13.13 0 01-.085.123l-.04.006H7.353a.124.124 0 01-.117-.088l-.006-.04V5.912l.006-.04a.127.127 0 01.078-.083l.04-.006h1.412zm1.97 0l.039.007a.127.127 0 01.078.082l.006.04v1.315a.13.13 0 01-.085.123l-.039.006H9.322a.124.124 0 01-.117-.088l-.006-.04V5.912l.006-.04a.127.127 0 01.078-.083l.04-.006h1.411zM4.835 3.892l.04.007a.127.127 0 01.077.081l.007.041v1.315a.13.13 0 01-.085.123l-.039.007H3.424a.125.125 0 01-.117-.09l-.007-.04V4.021a.13.13 0 01.085-.122l.039-.007h1.412zm1.976 0l.04.007a.127.127 0 01.077.081l.007.041v1.315a.13.13 0 01-.085.123l-.039.007H5.4a.125.125 0 01-.117-.09l-.006-.04V4.021l.006-.04a.127.127 0 01.078-.082l.039-.007h1.412zm1.953 0c.054 0 .1.037.117.088l.007.041v1.315a.13.13 0 01-.085.123l-.04.007H7.353a.125.125 0 01-.117-.09l-.006-.04V4.021l.006-.04a.127.127 0 01.078-.082l.04-.007h1.412zm0-1.892c.054 0 .1.037.117.088l.007.04v1.316a.13.13 0 01-.085.123l-.04.006H7.353a.124.124 0 01-.117-.088l-.006-.04V2.128l.006-.04a.127.127 0 01.078-.082L7.353 2h1.412z"/>
  </symbol>

  <symbol id="JavaScript" viewBox="0 0 20 20">
    <path fill="currentColor" transform="translate(-364 -7319)" d="M379.328,7337.432 C377.583,7337.432 376.455,7336.6 375.905,7335.512 L375.905,7335.512 L377.435,7334.626 C377.838,7335.284 378.361,7335.767 379.288,7335.767 C380.066,7335.767 380.563,7335.378 380.563,7334.841 C380.563,7334.033 379.485,7333.717 378.724,7333.391 C377.368,7332.814 376.468,7332.089 376.468,7330.558 C376.468,7329.149 377.542,7328.075 379.221,7328.075 C380.415,7328.075 381.275,7328.491 381.892,7329.578 L380.429,7330.518 C380.107,7329.941 379.758,7329.713 379.221,7329.713 C378.67,7329.713 378.321,7330.062 378.321,7330.518 C378.321,7331.082 378.67,7331.31 379.476,7331.659 C381.165,7332.383 382.443,7332.952 382.443,7334.814 C382.443,7336.506 381.114,7337.432 379.328,7337.432 L379.328,7337.432 Z M375,7334.599 C375,7336.546 373.801,7337.575 372.136,7337.575 C370.632,7337.575 369.731,7337 369.288,7336 L369.273,7336 L369.266,7336 L369.262,7336 L370.791,7334.931 C371.086,7335.454 371.352,7335.825 371.996,7335.825 C372.614,7335.825 373,7335.512 373,7334.573 L373,7328 L375,7328 L375,7334.599 Z M364,7339 L384,7339 L384,7319 L364,7319 L364,7339 Z"/>
  </symbol>

  <symbol id="React" viewBox="0 0 256 256">
    <g fill="none" stroke="#58C4DC" stroke-width="10">
      <ellipse cx="128" cy="128" rx="92" ry="36"/>
      <ellipse cx="128" cy="128" rx="92" ry="36" transform="rotate(60 128 128)"/>
      <ellipse cx="128" cy="128" rx="92" ry="36" transform="rotate(120 128 128)"/>
    </g>
    <circle cx="128" cy="128" r="12" fill="#58C4DC"/>
  </symbol>

  <symbol id="SQL" viewBox="0 0 24 24">
    <path fill="currentColor" d="M4 2h16v3H4V2zm0 6h16v3H4V8zm0 6h16v3H4v-3z"/>
  </symbol>

  <symbol id="Git" viewBox="0 0 20 20">
    <path fill="currentColor" transform="translate(-84 -7399)" d="M94,7399 C99.523,7399 104,7403.59 104,7409.253 C104,7413.782 101.138,7417.624 97.167,7418.981 C96.66,7419.082 96.48,7418.762 96.48,7418.489 C96.48,7418.151 96.492,7417.047 96.492,7415.675 C96.492,7414.719 96.172,7414.095 95.813,7413.777 C98.04,7413.523 100.38,7412.656 100.38,7408.718 C100.38,7407.598 99.992,7406.684 99.35,7405.966 C99.454,7405.707 99.797,7404.664 99.252,7403.252 C99.252,7403.252 98.414,7402.977 96.505,7404.303 C95.706,7404.076 94.85,7403.962 94,7403.958 C93.15,7403.962 92.295,7404.076 91.497,7404.303 C89.586,7402.977 88.746,7403.252 88.746,7403.252 C88.203,7404.664 88.546,7405.707 88.649,7405.966 C88.01,7406.684 87.619,7407.598 87.619,7408.718 C87.619,7412.646 89.954,7413.526 92.175,7413.785 C91.889,7414.041 91.63,7414.493 91.54,7415.156 C90.97,7415.418 89.522,7415.871 88.63,7414.304 C88.63,7414.304 88.101,7413.319 87.097,7413.247 C87.097,7413.247 86.122,7413.234 87.029,7413.87 C87.029,7413.87 87.684,7414.185 88.139,7415.37 C88.139,7415.37 88.726,7417.2 91.508,7416.58 C91.513,7417.437 91.522,7418.245 91.522,7418.489 C91.522,7418.76 91.338,7419.077 90.839,7418.982 C86.865,7417.627 84,7413.783 84,7409.253 C84,7403.59 88.478,7399 94,7399"/>
  </symbol>

  <symbol id="LLM-IA" viewBox="0 0 24 24">
    <path fill="currentColor" d="M12 2a3 3 0 0 0-3 3v.2A4.8 4.8 0 0 0 5.2 9H5a3 3 0 0 0 0 6h.2A4.8 4.8 0 0 0 9 18.8v.2a3 3 0 1 0 6 0v-.2a4.8 4.8 0 0 0 3.8-3.8h.2a3 3 0 1 0 0-6h-.2A4.8 4.8 0 0 0 15 5.2V5a3 3 0 0 0-3-3Zm-4 8h8v2H8v-2Zm1 4h6v2H9v-2Z"/>
  </symbol>

<!-- LinkedIn Icon -->
  <symbol id="linkedin" viewBox="0 0 256 256">
    <path d="M218.123 218.127h-37.931v-59.403c0-14.165-.253-32.4-19.728-32.4-19.756 0-22.779 15.434-22.779 31.369v60.43h-37.93V95.967h36.413v16.694h.51a39.907 39.907 0 0 1 35.928-19.733c38.445 0 45.533 25.288 45.533 58.186l-.016 67.013ZM56.955 79.27c-12.157.002-22.014-9.852-22.016-22.009-.002-12.157 9.851-22.014 22.008-22.016 12.157-.003 22.014 9.851 22.016 22.008A22.013 22.013 0 0 1 56.955 79.27m18.966 138.858H37.95V95.967h37.97v122.16ZM237.033.018H18.89C8.58-.098.125 8.161-.001 18.471v219.053c.122 10.315 8.576 18.582 18.89 18.474h218.144c10.336.128 18.823-8.139 18.966-18.474V18.454c-.147-10.33-8.635-18.588-18.966-18.453" fill="#0A66C2"/>
  </symbol>

  <symbol id="mail" viewBox="0 0 24 24">
    <path fill="currentColor" d="M20 4H4c-1.1 0-2 .9-2 2v12c0 1.1.9 2 2 2h16c1.1 0 2-.9 2-2V6c0-1.1-.9-2-2-2zm0 4-8 5-8-5V6l8 5 8-5v2z"/>
  </symbol>

  <symbol id="cv" viewBox="0 0 24 24">
    <path fill="currentColor" d="M6 2c-1.1 0-2 .9-2 2v16c0 1.1.9 2 2 2h12c1.1 0 2-.9 2-2V8l-6-6H6zm7 1.5L18.5 9H13V3.5zM8 13h8v2H8v-2zm0 4h5v2H8v-2zm0-8h8v2H8V9z"/>
  </symbol>

  <symbol id="Full Stack" viewBox="0 0 1024 1024" class="icon" version="1.1" xmlns="http://www.w3.org/2000/svg" fill="#5ef0f3"><g id="SVGRepo_bgCarrier" stroke-width="0"></g><g id="SVGRepo_tracerCarrier" stroke-linecap="round" stroke-linejoin="round"></g><g id="SVGRepo_iconCarrier"><path d="M832 384l8 1.6-1.6 8 1.6 3.2-4.8 3.2-44.8 161.6-16-4.8 40-147.2-260.8 144-158.4 284.8-11.2-6.4-6.4 6.4-176-176 11.2-11.2 163.2 163.2 147.2-265.6-294.4-297.6 11.2-11.2v-8h9.6l3.2-3.2 3.2 3.2L664 208l1.6 16-395.2 22.4 278.4 278.4 276.8-153.6 6.4 12.8z" fill="#70f5f3"></path><path d="M896 384c0 35.2-28.8 64-64 64s-64-28.8-64-64 28.8-64 64-64 64 28.8 64 64z m-656-32c-62.4 0-112-49.6-112-112s49.6-112 112-112 112 49.6 112 112-49.6 112-112 112z m304 336c-80 0-144-64-144-144s64-144 144-144 144 64 144 144-64 144-144 144z m-224 144c0-35.2 28.8-64 64-64s64 28.8 64 64-28.8 64-64 64-64-28.8-64-64z m-144-176c0-17.6 14.4-32 32-32s32 14.4 32 32-14.4 32-32 32-32-14.4-32-32z m448-440c0-22.4 17.6-40 40-40s40 17.6 40 40-17.6 40-40 40-40-17.6-40-40zM736 560c0-27.2 20.8-48 48-48s48 20.8 48 48-20.8 48-48 48-48-20.8-48-48z" fill="#2efcff"></path></g>
  </symbol>
    
  <symbol id="Linux" viewBox="0 0 16 16">
    <path fill="currentColor" d="M8.294 1c-.09 0-.184.005-.28.012-2.465.194-1.811 2.804-1.85 3.674-.043.637-.174 1.14-.612 1.762-.516.613-1.24 1.604-1.584 2.637-.162.485-.24.982-.167 1.452a.247.247 0 00-.064.079c-.152.156-.263.35-.387.49-.116.115-.283.155-.465.232-.183.08-.384.157-.504.397a.78.78 0 00-.077.351c0 .116.016.234.032.313.034.233.068.425.023.566-.145.396-.163.668-.062.865.102.195.313.275.549.351.472.117 1.114.079 1.618.35.54.272 1.088.39 1.526.274.307-.067.566-.27.705-.552.342-.001.717-.157 1.318-.194.408-.034.918.155 1.503.116.015.078.037.116.067.194l.001.002c.229.454.65.66 1.1.625.45-.035.928-.313 1.316-.762.368-.446.982-.632 1.387-.877.203-.116.367-.273.379-.497.013-.234-.117-.473-.417-.803v-.056l-.002-.002c-.099-.117-.145-.312-.197-.54-.05-.234-.106-.459-.287-.61h-.001c-.035-.032-.072-.04-.11-.08a.208.208 0 00-.11-.037c.25-.745.153-1.487-.102-2.154-.31-.823-.854-1.54-1.269-2.032-.464-.587-.919-1.142-.91-1.965.016-1.255.138-3.578-2.067-3.581zm.309 1.986h.007c.125 0 .231.036.34.116a.89.89 0 01.256.31c.062.152.093.268.097.423 0-.012.004-.023.004-.035v.061a.05.05 0 01-.003-.012l-.002-.014c-.001.142-.03.282-.087.412a.556.556 0 01-.125.195.415.415 0 00-.051-.024c-.06-.027-.115-.038-.166-.078a.765.765 0 00-.128-.038c.03-.035.085-.078.107-.116a.69.69 0 00.051-.234V3.94a.706.706 0 00-.035-.233c-.027-.079-.06-.117-.107-.195-.05-.038-.098-.077-.156-.077h-.01c-.054 0-.102.018-.152.077a.467.467 0 00-.12.195.688.688 0 00-.052.234v.01c0 .053.004.105.011.156-.112-.039-.255-.078-.354-.117a.954.954 0 01-.01-.117V3.86a1.034 1.034 0 01.087-.448.63.63 0 01.251-.31.575.575 0 01.347-.117zm-1.728.035h.02c.084 0 .158.028.234.078a.806.806 0 01.2.272c.053.116.082.233.09.389v.002a.856.856 0 01-.002.155v.047l-.048.014c-.089.032-.16.079-.23.117a.633.633 0 00.002-.156V3.93c-.007-.078-.023-.117-.047-.194a.358.358 0 00-.097-.156.145.145 0 00-.107-.037h-.012c-.042.003-.076.023-.109.077a.322.322 0 00-.07.157.55.55 0 00-.013.193v.008c.007.08.021.117.047.195a.363.363 0 00.096.157c.006.005.012.01.02.014-.04.033-.068.04-.102.079a.177.177 0 01-.077.04 1.53 1.53 0 01-.16-.235 1.034 1.034 0 01-.09-.389c-.01-.132.005-.264.046-.39a.834.834 0 01.165-.312c.075-.077.152-.116.244-.116zm.799.995c.194 0 .428.038.71.233.17.116.304.157.613.273h.002c.149.079.236.155.279.232v-.076a.333.333 0 01.009.274c-.072.18-.301.375-.62.491v.001c-.156.08-.292.195-.452.272-.161.078-.343.17-.59.155a.664.664 0 01-.262-.039 2.077 2.077 0 01-.188-.115c-.113-.079-.211-.194-.357-.271v-.003h-.003c-.233-.144-.359-.299-.4-.414-.04-.157-.003-.275.113-.35.13-.08.221-.159.282-.197.06-.043.083-.059.102-.076h.001v-.002c.099-.117.255-.274.49-.35.08-.021.171-.038.272-.038h-.001zm1.633 1.25c.21.826.698 2.026 1.012 2.609.167.311.5.967.643 1.764.091-.003.193.01.3.037.376-.975-.319-2.022-.636-2.314-.128-.116-.135-.195-.071-.195.344.312.796.917.96 1.608.075.312.093.644.012.974.039.017.079.035.12.04.601.311.824.547.717.896v-.025c-.035-.002-.07 0-.105 0h-.01c.089-.272-.106-.481-.62-.714-.534-.233-.96-.196-1.033.271-.005.025-.008.039-.01.079-.04.013-.082.03-.123.037-.25.157-.386.39-.462.693-.076.31-.1.674-.12 1.09v.002c-.011.195-.099.489-.186.787-.875.626-2.088.897-3.12.195a1.543 1.543 0 00-.234-.31.846.846 0 00-.16-.195.963.963 0 00.27-.04.359.359 0 00.184-.194c.063-.156 0-.407-.201-.678-.201-.273-.543-.58-1.043-.888-.368-.233-.575-.507-.671-.814-.096-.312-.083-.633-.009-.96.143-.624.51-1.23.743-1.611.063-.038.022.078-.238.568-.23.438-.665 1.456-.07 2.248.022-.578.15-1.146.377-1.678.329-.745 1.016-2.044 1.07-3.073.029.021.127.08.17.118.126.078.22.194.343.271a.694.694 0 00.511.196l.065.003c.24 0 .425-.078.581-.156.17-.078.304-.195.432-.233h.003c.272-.08.487-.235.609-.409zm1.275 5.225c.021.35.2.726.514.803.343.078.837-.194 1.045-.446l.123-.006c.184-.004.337.006.494.156l.002.002c.121.116.178.31.228.511.05.233.09.455.239.622.283.307.376.528.37.665l.003-.004v.01l-.002-.007c-.009.153-.108.231-.29.347-.368.234-1.02.416-1.434.916-.36.43-.8.665-1.188.695-.387.03-.721-.117-.918-.524l-.003-.002c-.122-.233-.07-.597.033-.985.103-.39.25-.784.27-1.107.022-.417.044-.779.114-1.058.07-.271.18-.465.374-.574l.026-.013v-.001zm-6.308.028h.006a.53.53 0 01.091.009c.22.032.412.194.597.438l.53.97.003.003c.141.31.44.62.693.955.253.348.45.66.425.915v.004c-.033.434-.28.67-.656.755-.376.079-.887 0-1.397-.27-.565-.314-1.235-.274-1.667-.352-.215-.039-.355-.117-.421-.233-.064-.117-.066-.352.071-.718v-.002l.002-.002c.068-.195.017-.439-.016-.652-.032-.234-.049-.414.025-.549.093-.194.23-.233.402-.31.172-.08.374-.118.534-.275h.001c.15-.157.26-.351.39-.49.11-.117.222-.196.387-.196zM8.45 5.226c-.254.117-.551.312-.868.312-.316 0-.566-.155-.747-.272-.09-.078-.163-.156-.217-.195-.096-.078-.084-.194-.044-.194.064.01.076.078.117.117.056.038.125.116.21.194.17.116.396.272.68.272.283 0 .615-.156.816-.272.114-.078.26-.194.378-.272.09-.08.087-.156.163-.156.074.01.02.078-.086.194-.13.098-.264.189-.403.273zm-.631-.923V4.29c-.004-.012.007-.024.017-.03.043-.024.105-.015.151.003.037 0 .094.04.088.079-.004.029-.05.038-.079.038-.032 0-.054-.025-.082-.04-.03-.01-.085-.004-.095-.037zm-.322 0c-.011.034-.066.028-.097.038-.027.015-.05.04-.081.04-.03 0-.076-.012-.08-.04-.005-.038.052-.077.088-.077.047-.018.107-.028.151-.003.011.005.021.017.018.029v.012h.001z"/>
  </symbol>
  
</svg>
